#!OML:ASF E:\acrobat2\Project_11_07_03\Capture day 1\Session 1\Acrobat.ASF
:FULLY-SPECIFIED
:DEGREES
420
root 10.1979 21.5349 -16.5658 11.3773 -0.854413 -1.516
lowerback -5.48054 0.694046 1.8502
upperback -5.65738 0.844083 -1.30869
thorax -2.71693 0.332986 -2.36052
lowerneck -0.480086 -1.73643 -0.382185
upperneck 10.3449 -2.52907 2.24718
head 3.45232 -1.18664 0.720201
rclavicle -3.62782e-015 -1.59028e-015
rhumerus 95.2958 -33.4286 -66.1291
rradius 16.1774
rwrist 21.1375
rhand -20.3289 -21.0136
rfingers 7.12502
rthumb 6.0223 -50.9081
lclavicle -3.62782e-015 -1.59028e-015
lhumerus 86.8285 28.0465 40.6046
lradius 19.2756
lwrist -8.25666
lhand -14.1832 -21.8014
lfingers 7.12502
lthumb 11.9524 7.83741
rfemur 3.67013 6.30367 19.2552
rtibia 1.07053
rfoot -20.9937 -6.66605
rtoes 18.2
lfemur -0.44989 -4.06319 -15.5953
ltibia 8.93751
lfoot -16.7776 -4.69767
ltoes 12.1609
421
root 10.203 21.5716 -16.5734 11.903 -0.855047 -1.58346
lowerback -5.06293 0.666809 1.90219
upperback -5.36814 0.813942 -1.23598
thorax -2.65036 0.321281 -2.31766
lowerneck -0.993207 -1.71342 -0.536095
upperneck 10.5694 -2.50206 2.29353
head 3.63198 -1.17195 0.759727
rclavicle -5.92627e-015 1.47101e-014
rhumerus 95.8136 -33.3289 -66.5496
rradius 16.1498
rwrist 21.2786
rhand -20.4929 -21.1558
rfingers 7.12502
rthumb 5.86394 -51.0547
lclavicle -5.92627e-015 1.47101e-014
lhumerus 86.9928 28.4025 40.8949
lradius 19.1923
lwrist -8.55447
lhand -14.0914 -21.734
lfingers 7.12502
lthumb 12.041 7.89964
rfemur 2.88162 6.12034 19.1507
rtibia 1.3366
rfoot -20.4322 -6.43289
rtoes 19.1389
lfemur -1.45756 -3.91132 -15.4572
ltibia 9.60542
lfoot -16.2359 -4.55277
ltoes 12.3743
422
root 10.2092 21.6106 -16.5847 12.4655 -0.875624 -1.65224
lowerback -4.64385 0.650672 1.97052
upperback -5.07732 0.798256 -1.17741
thorax -2.58261 0.316092 -2.29816
lowerneck -1.47259 -1.68911 -0.676415
upperneck 10.7978 -2.47433 2.36036
head 3.80832 -1.15585 0.804516
rclavicle -2.00027e-015 -1.39149e-014
rhumerus 96.1533 -33.2745 -66.7406
rradius 16.1582
rwrist 21.125
rhand -20.6056 -21.3163
rfingers 7.12502
rthumb 5.7551 -51.2182
lclavicle -2.00027e-015 -1.39149e-014
lhumerus 87.1965 28.7274 41.3109
lradius 19.1164
lwrist -8.94553
lhand -13.9645 -21.6995
lfingers 7.12502
lthumb 12.1634 7.92691
rfemur 1.99515 5.88104 19.0257
rtibia 1.67471
rfoot -19.8494 -6.15662
rtoes 19.9505
lfemur -2.55176 -3.71597 -15.319
ltibia 10.3376
lfoot -15.6959 -4.42812
ltoes 12.5514
423
root 10.217 21.6511 -16.6004 13.0799 -0.885127 -1.71085
lowerback -4.23171 0.643982 2.04692
upperback -4.81931 0.795 -1.14136
thorax -2.54475 0.315872 -2.3064
lowerneck -1.77999 -1.66877 -0.776688
upperneck 10.9777 -2.4528 2.43703
head 3.93489 -1.14236 0.846876
rclavicle 1.09332e-015 -4.37326e-015
rhumerus 96.2361 -33.276 -66.6562
rradius 16.2127
rwrist 20.6964
rhand -20.645 -21.5049
rfingers 7.12502
rthumb 5.71713 -51.4077
lclavicle 1.09332e-015 -4.37326e-015
lhumerus 87.3719 28.9658 41.7566
lradius 19.0607
lwrist -9.34395
lhand -13.8096 -21.6981
lfingers 7.12502
lthumb 12.3127 7.91939
rfemur 0.998792 5.57558 18.8735
rtibia 2.07108
rfoot -19.2217 -5.86899
rtoes 20.6736
lfemur -3.77115 -3.50569 -15.1901
ltibia 11.165
lfoot -15.153 -4.31859
ltoes 12.6771
424
root 10.2262 21.6927 -16.6209 13.7404 -0.86018 -1.75052
lowerback -3.81461 0.638163 2.12871
upperback -4.59407 0.793086 -1.13063
thorax -2.5438 0.315033 -2.34416
lowerneck -1.90629 -1.64507 -0.812855
upperneck 11.0619 -2.42519 2.48814
head 3.99073 -1.12624 0.870871
rclavicle -6.21202e-016 3.57812e-015
rhumerus 96.1098 -33.3223 -66.3706
rradius 16.3001
rwrist 20.0973
rhand -20.6382 -21.7185
rfingers 7.12502
rthumb 5.72364 -51.6212
lclavicle -6.21202e-016 3.57812e-015
lhumerus 87.4842 29.1155 42.1606
lradius 19.0358
lwrist -9.67288
lhand -13.6896 -21.727
lfingers 7.12502
lthumb 12.4284 7.88352
rfemur -0.0975268 5.2119 18.6945
rtibia 2.52315
rfoot -18.5663 -5.57623
rtoes 21.4105
lfemur -5.11949 -3.30153 -15.0763
ltibia 12.0949
lfoot -14.5932 -4.22681
ltoes 12.8078
425
root 10.2365 21.736 -16.6466 14.426 -0.789188 -1.76458
lowerback -3.359 0.628273 2.21043
upperback -4.39677 0.786688 -1.14731
thorax -2.59381 0.310617 -2.41098
lowerneck -1.85729 -1.63475 -0.785021
upperneck 11.0544 -2.415 2.51864
head 3.97835 -1.11885 0.876839
rclavicle 1.19768e-014 3.97569e-015
rhumerus 95.7978 -33.4132 -65.9148
rradius 16.4073
rwrist 19.388
rhand -20.6216 -21.9566
rfingers 7.12502
rthumb 5.7397 -51.8588
lclavicle 1.19768e-014 3.97569e-015
lhumerus 87.5201 29.1797 42.4579
lradius 19.0304
lwrist -9.85735
lhand -13.6985 -21.7717
lfingers 7.12502
lthumb 12.4198 7.83935
rfemur -1.26379 4.82657 18.4958
rtibia 3.02835
rfoot -17.9299 -5.3006
rtoes 22.2313
lfemur -6.57732 -3.11102 -14.9805
ltibia 13.1209
lfoot -14.0077 -4.17386
ltoes 13.0584
426
root 10.247 21.7813 -16.6774 15.108 -0.676736 -1.7546
lowerback -2.82985 0.607826 2.28312
upperback -4.21038 0.768168 -1.17778
thorax -2.6975 0.299346 -2.48803
lowerneck -1.68297 -1.64179 -0.712421
upperneck 10.9609 -2.42531 2.51886
head 3.90995 -1.12261 0.864504
rclavicle -1.98785e-015 -7.95139e-016
rhumerus 95.3885 -33.5114 -65.3877
rradius 16.5189
rwrist 18.6734
rhand -20.6235 -22.2184
rfingers 7.12502
rthumb 5.73783 -52.1207
lclavicle -1.98785e-015 -7.95139e-016
lhumerus 87.4938 29.1996 42.6591
lradius 19.0253
lwrist -9.96417
lhand -13.7941 -21.813
lfingers 7.12502
lthumb 12.3276 7.80363
rfemur -2.46896 4.43197 18.2889
rtibia 3.59413
rfoot -17.3377 -5.04716
rtoes 23.0872
lfemur -8.10771 -2.91898 -14.9004
ltibia 14.2294
lfoot -13.3905 -4.17878
ltoes 13.4838
427
root 10.2569 21.8288 -16.7123 15.7568 -0.547257 -1.73188
lowerback -2.20346 0.574931 2.34363
upperback -4.00764 0.735635 -1.20694
thorax -2.84045 0.281038 -2.55775
lowerneck -1.47716 -1.66124 -0.620851
upperneck 10.812 -2.44855 2.4891
head 3.81532 -1.13393 0.838535
rclavicle 1.0138e-014 7.15625e-015
rhumerus 95.0108 -33.5753 -64.9387
rradius 16.6207
rwrist 18.0804
rhand -20.642 -22.4587
rfingers 7.12502
rthumb 5.71998 -52.3615
lclavicle 1.0138e-014 7.15625e-015
lhumerus 87.4293 29.2383 42.7823
lradius 18.9966
lwrist -10.0864
lhand -13.8968 -21.8524
lfingers 7.12502
lthumb 12.2286 7.77007
rfemur -3.6857 4.02525 18.0891
rtibia 4.23636
rfoot -16.7927 -4.79199
rtoes 23.9023
lfemur -9.66184 -2.70523 -14.8301
ltibia 15.4086
lfoot -12.7493 -4.2329
ltoes 14.0348
428
root 10.2662 21.8778 -16.7503 16.3585 -0.428944 -1.71162
lowerback -1.47627 0.533566 2.39679
upperback -3.76755 0.694542 -1.22522
thorax -3.00287 0.258944 -2.61256
lowerneck -1.33566 -1.68411 -0.525659
upperneck 10.6458 -2.47279 2.42729
head 3.72678 -1.14662 0.801065
rclavicle 1.39149e-015 -1.98785e-015
rhumerus 94.7243 -33.5995 -64.6064
rradius 16.7052
rwrist 17.6242
rhand -20.6596 -22.6204
rfingers 7.12502
rthumb 5.70297 -52.5237
lclavicle 1.39149e-015 -1.98785e-015
lhumerus 87.3613 29.3354 42.8826
lradius 18.9425
lwrist -10.2988
lhand -13.9131 -21.8796
lfingers 7.12502
lthumb 12.2129 7.74385
rfemur -4.90202 3.59775 17.9114
rtibia 4.96422
rfoot -16.2719 -4.52249
rtoes 24.5854
lfemur -11.2087 -2.45479 -14.7632
ltibia 16.655
lfoot -12.1133 -4.3184
ltoes 14.5901
429
root 10.2745 21.9274 -16.7909 16.9209 -0.368754 -1.70321
lowerback -0.661524 0.497427 2.43292
upperback -3.48021 0.662898 -1.2284
thorax -3.16617 0.242829 -2.64247
lowerneck -1.32369 -1.70202 -0.442099
upperneck 10.4814 -2.48714 2.33397
head 3.66354 -1.1552 0.754976
rclavicle 2.78299e-015 2.78299e-015
rhumerus 94.6581 -33.5563 -64.5397
rradius 16.7428
rwrist 17.4106
rhand -20.6577 -22.6684
rfingers 7.12502
rthumb 5.70481 -52.5716
lclavicle 2.78299e-015 2.78299e-015
lhumerus 87.3359 29.5007 43.07
lradius 18.8801
lwrist -10.7056
lhand -13.7666 -21.8872
lfingers 7.12502
lthumb 12.3541 7.72775
rfemur -6.14395 3.14852 17.7549
rtibia 5.79604
rfoot -15.7454 -4.21692
rtoes 25.1193
lfemur -12.7441 -2.14938 -14.704
ltibia 17.9687
lfoot -11.5243 -4.39993
ltoes 14.9946
430
root 10.2817 21.9754 -16.8341 17.4772 -0.407942 -1.70948
lowerback 0.206915 0.480589 2.43491
upperback -3.15299 0.658145 -1.22038
thorax -3.31783 0.241934 -2.64232
lowerneck -1.4384 -1.70357 -0.388876
upperneck 10.3011 -2.47815 2.23724
head 3.61936 -1.15283 0.713213
rclavicle 1.88845e-015 0
rhumerus 94.8518 -33.4369 -64.7853
rradius 16.7254
rwrist 17.4479
rhand -20.6243 -22.6333
rfingers 7.12502
rthumb 5.73707 -52.5356
lclavicle 1.88845e-015 0
lhumerus 87.3752 29.7154 43.3909
lradius 18.8159
lwrist -11.2969
lhand -13.5236 -21.8818
lfingers 7.12502
lthumb 12.5885 7.71896
rfemur -7.46904 2.67827 17.6109
rtibia 6.75561
rfoot -15.1936 -3.86357
rtoes 25.4385
lfemur -14.3015 -1.76994 -14.6598
ltibia 19.3576
lfoot -11.0075 -4.44249
ltoes 15.0646
